# xmcd CD database file
#
# Track frame offsets:
#	150
#	21152
#	47620
#	64755
#	92070
#	111162
#	138140
#	159980
#	193510
#	217900
#	243580
#
# Disc length: 3612 seconds
#
# Revision: 0
# Processed by: cddbd v1.5PL3 Copyright (c) Steve Scherf et al.
# Submitted via: CDex 1.50
#
DISCID=8d0e1a0b
DTITLE=The Times - Alternative Commercial Crossover
DYEAR=1993
DGENRE=Pop
TTITLE0=Thr Obligatory Grunge Song
TTITLE1=Finnegan's Break
TTITLE2=How Honest Are Pearl Jam ?
TTITLE3=Baby Girl
TTITLE4=Ballad Of Georgie Best
TTITLE5=Lundi Bleu - Praise The Road Mix
TTITLE6=A Palace In The Sun
TTITLE7=Sorry, I've Written A Melody
TTITLE8=Finnegan's Break - Corporate Rock Mix
TTITLE9=The Whole World's Turning Scarface
TTITLE10=All I Want Is You To Care
EXTD=YEAR: 1993
EXTT0=
EXTT1=
EXTT2=
EXTT3=
EXTT4=
EXTT5=
EXTT6=
EXTT7=
EXTT8=
EXTT9=
EXTT10=
PLAYORDER=
